<svg xmlns="http://www.w3.org/2000/svg" class="site-logo"
                    xmlns:xlink="http://www.w3.org/1999/xlink" width="279.44" height="54.39" viewBox="0 0 279.44 54.39">
                    <defs>
                        <linearGradient id="linear-gradient" x1="1.017" y1="-48.369" x2="0.002" y2="-48.191"
                            gradientUnits="objectBoundingBox">
                            <stop offset="0" stop-color="#1900ef" />
                            <stop offset="0.11" stop-color="#1805ef" />
                            <stop offset="0.25" stop-color="#1714f0" />
                            <stop offset="0.4" stop-color="#152cf2" />
                            <stop offset="0.56" stop-color="#124ff4" />
                            <stop offset="0.72" stop-color="#0e7bf7" />
                            <stop offset="0.89" stop-color="#0ab0fb" />
                            <stop offset="1" stop-color="#07d7fe" />
                        </linearGradient>
                        <linearGradient id="linear-gradient-2" x1="0.501" y1="-19.901" x2="0.501" y2="-19.049"
                            gradientUnits="objectBoundingBox">
                            <stop offset="0" stop-color="#ff008a" />
                            <stop offset="0.03" stop-color="#f00090" />
                            <stop offset="0.18" stop-color="#b800a9" />
                            <stop offset="0.33" stop-color="#8700be" />
                            <stop offset="0.47" stop-color="#5f00cf" />
                            <stop offset="0.61" stop-color="#4000dd" />
                            <stop offset="0.75" stop-color="#2a00e7" />
                            <stop offset="0.88" stop-color="#1d00ed" />
                            <stop offset="1" stop-color="#1900ef" />
                        </linearGradient>
                    </defs>
                    <g id="zuruTech" transform="translate(-600.13 -482.14)">
                        <path id="zuru"
                            d="M95.51,25.41h.01Zm-53.519,0h.02ZM86.68,22.87c-1.8-1.7-2.7-4.48-2.7-8.36V.76h5.81V13.2q0,4.065,1.3,5.76c.86,1.129,2.34,1.689,4.42,1.689s3.56-.56,4.41-1.689,1.28-3.05,1.28-5.76V.76h5.81V14.51c0,3.88-.89,6.66-2.68,8.36s-4.727,2.539-8.815,2.54S88.479,24.559,86.68,22.87Zm-53.509,0c-1.8-1.7-2.7-4.48-2.7-8.36V.76H36.28V13.2q0,4.065,1.3,5.76C38.44,20.09,39.92,20.65,42,20.65s3.56-.56,4.41-1.689,1.28-3.05,1.28-5.76V.76H53.5V14.51c0,3.88-.9,6.66-2.679,8.36S46.095,25.408,42,25.41,34.969,24.559,33.17,22.87ZM62.02,24.66V.75h5.81V4.23a8.848,8.848,0,0,1,3.15-3.14A8.273,8.273,0,0,1,75.16,0a9.482,9.482,0,0,1,2.42.33,8.994,8.994,0,0,1,2.14.84l-2.43,4.9a5.756,5.756,0,0,0-1.76-.75,7.762,7.762,0,0,0-1.88-.26,5.569,5.569,0,0,0-2.81.76,6.429,6.429,0,0,0-2.17,1.97,4.564,4.564,0,0,0-.83,2.61V24.64H62.03v.02Zm-62.01,0L14.83,5.26H1.9V.75H24.8L9.95,20.15H24.07v4.51Zm-.01,0H.01Z"
                            transform="translate(667.86 497.66)" />
                        <path id="round"
                            d="M32.61,257.03A25.98,25.98,0,1,0,6.63,231.05,25.978,25.978,0,0,0,32.61,257.03Z"
                            transform="translate(594 279)" stroke="#fff" stroke-width="1" />
                        <path id="tech"
                            d="M61.81,40.93h.01ZM24.04,39.27a12.108,12.108,0,0,1-4.63-4.52,12.459,12.459,0,0,1-1.68-6.43,12.824,12.824,0,0,1,.97-5.01,12.53,12.53,0,0,1,2.7-4.07,12.418,12.418,0,0,1,8.9-3.71,12.751,12.751,0,0,1,6.32,1.55,11.71,11.71,0,0,1,4.39,4.28,12.876,12.876,0,0,1,1.72,6.3c0,.19,0,.34-.01.46a2.771,2.771,0,0,1-.06.43H21.13a9.584,9.584,0,0,0,1.26,4.95,8.991,8.991,0,0,0,3.47,3.37A10.317,10.317,0,0,0,30.91,38.1a10.157,10.157,0,0,0,4.871-1.13,9.872,9.872,0,0,0,3.61-3.26l2.52,1.35a11.826,11.826,0,0,1-4.631,4.32,13.709,13.709,0,0,1-6.5,1.54h-.03v.01A13.4,13.4,0,0,1,24.04,39.27Zm2-19.949A8.831,8.831,0,0,0,22.85,22,8.46,8.46,0,0,0,21.3,25.98v.01h18a8.52,8.52,0,0,0-1.561-3.96,8.976,8.976,0,0,0-3.19-2.7,9.083,9.083,0,0,0-4.21-.98A9.61,9.61,0,0,0,26.04,19.32ZM3.91,39.12a7.848,7.848,0,0,1-1.48-5.1V18.85H0V16.28H2.43V7.33H5.84V16.27h5.95V18.84H5.84V33.83a5.1,5.1,0,0,0,.769,3.03A2.548,2.548,0,0,0,8.8,37.91a3.964,3.964,0,0,0,2.43-.77l.86,2.71a6.8,6.8,0,0,1-1.869.779,8.334,8.334,0,0,1-2.15.291l.01.01A5.085,5.085,0,0,1,3.91,39.12Zm52.871.86a12.465,12.465,0,0,1-7.91-11.75,12.734,12.734,0,0,1,.98-5.02,12.383,12.383,0,0,1,6.86-6.72,13.438,13.438,0,0,1,5.11-.959,14.112,14.112,0,0,1,4.48.7,11.577,11.577,0,0,1,3.669,1.94l-1.4,2.29a10.942,10.942,0,0,0-11.52-.73,9.132,9.132,0,0,0-3.47,3.53,10.608,10.608,0,0,0,.021,9.99,9.143,9.143,0,0,0,3.5,3.51A10.107,10.107,0,0,0,62.24,38.04a11.105,11.105,0,0,0,3.44-.53A8.889,8.889,0,0,0,68.54,36l1.42,2.29A12.41,12.41,0,0,1,66.29,40.22a13.981,13.981,0,0,1-4.475.71A13.406,13.406,0,0,1,56.78,39.98Zm20.61.2V0H80.8V19.54a7.906,7.906,0,0,1,3.029-2.85,10,10,0,0,1,5.02-1.17,9.564,9.564,0,0,1,4.79,1.14,7.493,7.493,0,0,1,3.081,3.33,11.752,11.752,0,0,1,1.07,5.26V40.17H94.38V25.91a8.32,8.32,0,0,0-1.731-5.67,6.147,6.147,0,0,0-4.88-1.96,7.477,7.477,0,0,0-3.749.89,6.346,6.346,0,0,0-2.39,2.32,6.058,6.058,0,0,0-.84,3.119V40.18Zm-.01,0h.01Z"
                            transform="translate(781.78 482.14)" fill="#1900ef" />
                        <g id="t">
                            <path id="Path_25" data-name="Path 25"
                                d="M36.28,219.47v7.37l-7.35,1.36v-1.38H25.01a3.675,3.675,0,0,1,.01-7.35H36.28Z"
                                transform="translate(594 279)" fill="url(#linear-gradient)" />
                            <path id="Path_26" data-name="Path 26"
                                d="M28.93,228.2v12.92a3.67,3.67,0,0,0,7.34,0V224.79a5.31,5.31,0,0,0-.55-2.35l-6.8,5.76h0Z"
                                transform="translate(594 279)" fill="url(#linear-gradient-2)" />
                            <path id="Path_27" data-name="Path 27"
                                d="M40.2,219.47H36.28c-7.09,0-7.35,7.35-7.35,7.35v7.71c0-5.12,4.19-6.9,6.24-7.47a6.7,6.7,0,0,1,1.78-.24H40.2a3.67,3.67,0,1,0,0-7.34h0Z"
                                transform="translate(594 279)" fill="#fff" />
                        </g>
                    </g>
                </svg>